<svg width="545.2344116210937px" height="179.6px" xmlns="http://www.w3.org/2000/svg" viewBox="-22.617205810546864 -14.799999999999997 545.2344116210937 179.6" style="background: rgba(0, 0, 0, 0);" preserveAspectRatio="xMidYMid"><defs><filter id="editing-hole" x="-100%" y="-100%" width="300%" height="300%"><feFlood flood-color="#000000" result="black"></feFlood><feMorphology operator="dilate" radius="2" in="SourceGraphic" result="erode"></feMorphology><feGaussianBlur in="erode" stdDeviation="4" result="blur"></feGaussianBlur><feOffset in="blur" dx="2" dy="2" result="offset"></feOffset><feComposite operator="atop" in="offset" in2="black" result="merge"></feComposite><feComposite operator="in" in="merge" in2="SourceGraphic" result="inner-shadow"></feComposite></filter></defs><g filter="url(#editing-hole)"><g transform="translate(56.24498653411865, 110.00000190734863)"><path d="M14.99-14.70L14.99-60.38L22.89-60.38L22.89-18.01L22.89-18.01Q22.89-12.09 22.38-8.15L22.38-8.15L22.38-8.15Q21.88-4.20 20.49-1.18L20.49-1.18L20.49-1.18Q17.43 5.46 8.31 9.53L8.31 9.53L5.21 5.00L5.21 5.00Q9.41 1.47 10.71 0L10.71 0L10.71 0Q11.76-1.18 12.47-2.39L12.47-2.39L12.47-2.39Q14.99-6.63 14.99-14.70L14.99-14.70ZM53.37-44.64L53.37-44.64L53.37-44.64Q55.43-44.64 57.66-44.32L57.66-44.32L57.66-44.32Q59.88-44.01 62.02-43.13L62.02-43.13L62.02-43.13Q64.16-42.20 66.07-40.63L66.07-40.63L66.07-40.63Q67.99-39.05 69.46-36.53L69.46-36.53L69.46-36.53Q70.92-33.97 71.76-30.38L71.76-30.38L71.76-30.38Q72.60-26.79 72.60-21.84L72.60-21.84L72.60-21.84Q72.60-16.88 71.76-13.29L71.76-13.29L71.76-13.29Q70.92-9.70 69.46-7.18L69.46-7.18L69.46-7.18Q67.99-4.62 66.07-3.02L66.07-3.02L66.07-3.02Q64.16-1.43 62.02-0.55L62.02-0.55L62.02-0.55Q59.88 0.38 57.66 0.69L57.66 0.69L57.66 0.69Q55.43 1.01 53.37 1.01L53.37 1.01L53.37 1.01Q51.36 1.01 49.15 0.69L49.15 0.69L49.15 0.69Q46.95 0.38 44.81-0.55L44.81-0.55L44.81-0.55Q42.66-1.43 40.77-3.02L40.77-3.02L40.77-3.02Q38.88-4.62 37.42-7.18L37.42-7.18L37.42-7.18Q35.95-9.70 35.11-13.29L35.11-13.29L35.11-13.29Q34.27-16.88 34.27-21.84L34.27-21.84L34.27-21.84Q34.27-26.79 35.11-30.38L35.11-30.38L35.11-30.38Q35.95-33.97 37.42-36.53L37.42-36.53L37.42-36.53Q38.88-39.05 40.77-40.63L40.77-40.63L40.77-40.63Q42.66-42.20 44.81-43.13L44.81-43.13L44.81-43.13Q46.95-44.01 49.13-44.32L49.13-44.32L49.13-44.32Q51.31-44.64 53.37-44.64ZM53.37-38.72L53.37-38.72L53.37-38.72Q50.98-38.72 48.86-37.96L48.86-37.96L48.86-37.96Q46.74-37.21 45.14-35.32L45.14-35.32L45.14-35.32Q43.50-33.38 42.54-30.15L42.54-30.15L42.54-30.15Q41.57-26.92 41.57-21.84L41.57-21.84L41.57-21.84Q41.57-16.80 42.54-13.54L42.54-13.54L42.54-13.54Q43.50-10.29 45.14-8.40L45.14-8.40L45.14-8.40Q46.74-6.47 48.86-5.73L48.86-5.73L48.86-5.73Q50.98-5.00 53.37-5.00L53.37-5.00L53.37-5.00Q55.81-5.00 57.97-5.73L57.97-5.73L57.97-5.73Q60.13-6.47 61.77-8.40L61.77-8.40L61.77-8.40Q63.41-10.29 64.35-13.54L64.35-13.54L64.35-13.54Q65.30-16.80 65.30-21.84L65.30-21.84L65.30-21.84Q65.30-26.92 64.35-30.15L64.35-30.15L64.35-30.15Q63.41-33.38 61.77-35.32L61.77-35.32L61.77-35.32Q60.13-37.21 57.97-37.96L57.97-37.96L57.97-37.96Q55.81-38.72 53.37-38.72ZM96.83-44.64L96.83-44.64L96.83-44.64Q100.28-44.64 103.74-43.92L103.74-43.92L103.74-43.92Q107.21-43.21 110.19-41.95L110.19-41.95L110.19-41.95Q109.60-40.61 108.97-39.30L108.97-39.30L108.97-39.30Q108.34-38.00 107.58-36.74L107.58-36.74L107.58-36.74Q106.53-37.16 105.25-37.58L105.25-37.58L105.25-37.58Q103.97-38.00 102.57-38.30L102.57-38.30L102.57-38.30Q101.16-38.59 99.67-38.78L99.67-38.78L99.67-38.78Q98.18-38.97 96.75-38.97L96.75-38.97L96.75-38.97Q95.20-38.97 93.75-38.65L93.75-38.65L93.75-38.65Q92.30-38.34 91.19-37.63L91.19-37.63L91.19-37.63Q90.07-36.91 89.40-35.76L89.40-35.76L89.40-35.76Q88.73-34.60 88.73-32.88L88.73-32.88L88.73-32.88Q88.73-31.12 89.49-29.92L89.49-29.92L89.49-29.92Q90.24-28.72 91.54-27.92L91.54-27.92L91.54-27.92Q92.84-27.13 94.59-26.58L94.59-26.58L94.59-26.58Q96.33-26.04 98.30-25.57L98.30-25.57L98.30-25.57Q101.37-24.82 104.01-23.87L104.01-23.87L104.01-23.87Q106.66-22.93 108.59-21.42L108.59-21.42L108.59-21.42Q110.52-19.90 111.62-17.68L111.62-17.68L111.62-17.68Q112.71-15.45 112.71-12.18L112.71-12.18L112.71-12.18Q112.71-8.73 111.34-6.26L111.34-6.26L111.34-6.26Q109.98-3.78 107.65-2.16L107.65-2.16L107.65-2.16Q105.32-0.55 102.21 0.23L102.21 0.23L102.21 0.23Q99.10 1.01 95.57 1.01L95.57 1.01L95.57 1.01Q93.73 1.01 91.77 0.78L91.77 0.78L91.77 0.78Q89.82 0.55 87.91 0.10L87.91 0.10L87.91 0.10Q86-0.34 84.15-0.97L84.15-0.97L84.15-0.97Q82.30-1.60 80.67-2.35L80.67-2.35L80.67-2.35Q81.25-3.70 81.91-4.98L81.91-4.98L81.91-4.98Q82.56-6.26 83.27-7.52L83.27-7.52L83.27-7.52Q84.66-6.93 86.21-6.40L86.21-6.40L86.21-6.40Q87.76-5.88 89.40-5.50L89.40-5.50L89.40-5.50Q91.04-5.12 92.63-4.89L92.63-4.89L92.63-4.89Q94.23-4.66 95.70-4.66L95.70-4.66L95.70-4.66Q97.55-4.66 99.29-5.08L99.29-5.08L99.29-5.08Q101.03-5.50 102.40-6.40L102.40-6.40L102.40-6.40Q103.76-7.31 104.58-8.73L104.58-8.73L104.58-8.73Q105.40-10.16 105.40-12.18L105.40-12.18L105.40-12.18Q105.40-14.07 104.62-15.29L104.62-15.29L104.62-15.29Q103.85-16.50 102.54-17.32L102.54-17.32L102.54-17.32Q101.24-18.14 99.50-18.67L99.50-18.67L99.50-18.67Q97.76-19.19 95.83-19.65L95.83-19.65L95.83-19.65Q92.89-20.37 90.26-21.29L90.26-21.29L90.26-21.29Q87.64-22.21 85.69-23.70L85.69-23.70L85.69-23.70Q83.73-25.20 82.58-27.40L82.58-27.40L82.58-27.40Q81.42-29.60 81.42-32.88L81.42-32.88L81.42-32.88Q81.42-35.95 82.68-38.17L82.68-38.17L82.68-38.17Q83.94-40.40 86.06-41.82L86.06-41.82L86.06-41.82Q88.18-43.25 90.98-43.94L90.98-43.94L90.98-43.94Q93.77-44.64 96.83-44.64ZM124.00 0L124.00-60.47L131.23-60.47L131.23-24.10L150.88-44.64L155.62-40.02L138.62-22.51L160.07 0L151.09 0L131.23-21.00L131.23 0L124.00 0ZM175.02-33.55L175.40-33.55L175.40-33.55Q176.70-36.16 178.19-38.25L178.19-38.25L178.19-38.25Q179.68-40.35 181.49-41.82L181.49-41.82L181.49-41.82Q183.13-43.25 185.10-43.94L185.10-43.94L185.10-43.94Q187.08-44.64 189.59-44.64L189.59-44.64L189.59-44.64Q190.43-44.64 191.55-44.55L191.55-44.55L191.55-44.55Q192.66-44.47 193.67-44.26L193.67-44.26L193.67-44.26Q193.50-42.16 193.27-40.31L193.27-40.31L193.27-40.31Q193.04-38.46 192.66-36.58L192.66-36.58L192.66-36.58Q190.56-36.95 188.82-37.12L188.82-37.12L188.82-37.12Q187.08-37.29 185.52-37.04L185.52-37.04L185.52-37.04Q183.67-36.70 182.31-35.80L182.31-35.80L182.31-35.80Q180.94-34.90 179.79-33.40L179.79-33.40L179.79-33.40Q178.63-31.91 177.54-29.84L177.54-29.84L177.54-29.84Q176.45-27.76 175.15-25.07L175.15-25.07L175.15 0L167.93 0L167.93-26.92L167.93-26.92Q167.93-29.56 167.86-31.58L167.86-31.58L167.86-31.58Q167.80-33.59 167.61-35.42L167.61-35.42L167.61-35.42Q167.42-37.25 167.04-39.03L167.04-39.03L167.04-39.03Q166.67-40.82 166.04-43L166.04-43L166.04-43Q167.80-43.46 169.50-43.84L169.50-43.84L169.50-43.84Q171.20-44.22 172.97-44.55L172.97-44.55L172.97-44.55Q173.55-42.87 173.91-41.57L173.91-41.57L173.91-41.57Q174.27-40.27 174.48-39.03L174.48-39.03L174.48-39.03Q174.69-37.79 174.79-36.51L174.79-36.51L174.79-36.51Q174.90-35.23 175.02-33.55L175.02-33.55ZM200.89-41.61L200.89-41.61Q208.49-45.48 216.51-45.48L216.51-45.48L216.51-45.48Q219.62-45.48 222.20-44.78L222.20-44.78L222.20-44.78Q224.78-44.09 226.86-42.62L226.86-42.62L226.86-42.62Q228.94-41.15 230.12-38.65L230.12-38.65L230.12-38.65Q231.29-36.16 231.29-32.84L231.29-32.84L231.29-32.84Q231.29-30.11 230.66-28.05L230.66-28.05L230.66-28.05Q229.49-24.36 225.46-21.88L225.46-21.88L225.46-21.88Q223.44-20.62 216.68-17.68L216.68-17.68L216.68-17.68Q216.60-17.64 216.47-17.57L216.47-17.57L216.47-17.57Q216.34-17.51 216.26-17.49L216.26-17.49L216.26-17.49Q216.18-17.47 216.05-17.38L216.05-17.38L216.05-17.38Q213.61-16.33 212.92-16.00L212.92-16.00L212.92-16.00Q212.23-15.66 210.70-14.61L210.70-14.61L210.70-14.61Q209.16-13.56 208.72-12.64L208.72-12.64L208.72-12.64Q208.28-11.72 207.80-10.08L207.80-10.08L207.80-10.08Q207.32-8.44 207.32-6.30L207.32-6.30L230.45-6.30L230.45 0L200.09 0L200.09-5.88L200.09-5.88Q200.09-9.07 200.85-11.61L200.85-11.61L200.85-11.61Q201.60-14.15 202.78-15.92L202.78-15.92L202.78-15.92Q203.96-17.68 206.08-19.21L206.08-19.21L206.08-19.21Q208.20-20.74 210.28-21.77L210.28-21.77L210.28-21.77Q212.35-22.80 215.50-24.06L215.50-24.06L215.50-24.06Q217.90-25.03 219.12-25.62L219.12-25.62L219.12-25.62Q220.33-26.20 221.63-27.19L221.63-27.19L221.63-27.19Q222.94-28.18 223.46-29.48L223.46-29.48L223.46-29.48Q223.99-30.78 223.99-32.59L223.99-32.59L223.99-32.59Q223.99-36.16 221.76-37.79L221.76-37.79L221.76-37.79Q219.54-39.43 215.80-39.43L215.80-39.43L215.80-39.43Q209.79-39.43 203.16-36.20L203.16-36.20L200.89-41.61ZM249.06-9.41L249.06-9.41L249.06-9.41Q250.11-9.41 251.05-9.03L251.05-9.03L251.05-9.03Q252.00-8.65 252.71-7.94L252.71-7.94L252.71-7.94Q254.18-6.47 254.18-4.28L254.18-4.28L254.18-4.28Q254.18-2.14 252.71-0.67L252.71-0.67L252.71-0.67Q252.00 0.04 251.05 0.44L251.05 0.44L251.05 0.44Q250.11 0.84 249.06 0.84L249.06 0.84L249.06 0.84Q248.01 0.84 247.08 0.44L247.08 0.44L247.08 0.44Q246.16 0.04 245.44-0.67L245.44-0.67L245.44-0.67Q244.73-1.39 244.33-2.31L244.33-2.31L244.33-2.31Q243.93-3.23 243.93-4.28L243.93-4.28L243.93-4.28Q243.93-5.33 244.33-6.28L244.33-6.28L244.33-6.28Q244.73-7.22 245.44-7.94L245.44-7.94L245.44-7.94Q246.91-9.41 249.06-9.41ZM273.50-43.67L273.50-53.67L280.72-53.67L280.72-43.67L295.42-43.67L295.42-37.58L280.72-37.58L280.72-12.51L280.72-12.51Q280.72-9.99 280.86-8.67L280.86-8.67L280.86-8.67Q281.01-7.35 281.60-6.59L281.60-6.59L281.60-6.59Q282.69-5.08 286.01-5.08L286.01-5.08L286.01-5.08Q287.86-5.08 289.58-5.46L289.58-5.46L289.58-5.46Q291.34-5.84 292.81-6.30L292.81-6.30L292.81-6.30Q293.99-3.74 294.95-0.67L294.95-0.67L294.95-0.67Q290.00 1.01 284.96 1.01L284.96 1.01L284.96 1.01Q281.31 1.01 279.10 0.19L279.10 0.19L279.10 0.19Q276.90-0.63 275.64-2.48L275.64-2.48L275.64-2.48Q274.33-4.41 273.92-7.10L273.92-7.10L273.92-7.10Q273.50-9.78 273.50-14.53L273.50-14.53L273.50-37.58L267.20-37.58L267.20-43.67L273.50-43.67ZM318.76-44.64L318.76-44.64L318.76-44.64Q322.21-44.64 325.67-43.92L325.67-43.92L325.67-43.92Q329.13-43.21 332.12-41.95L332.12-41.95L332.12-41.95Q331.53-40.61 330.90-39.30L330.90-39.30L330.90-39.30Q330.27-38.00 329.51-36.74L329.51-36.74L329.51-36.74Q328.46-37.16 327.18-37.58L327.18-37.58L327.18-37.58Q325.90-38.00 324.49-38.30L324.49-38.30L324.49-38.30Q323.09-38.59 321.60-38.78L321.60-38.78L321.60-38.78Q320.11-38.97 318.68-38.97L318.68-38.97L318.68-38.97Q317.13-38.97 315.68-38.65L315.68-38.65L315.68-38.65Q314.23-38.34 313.11-37.63L313.11-37.63L313.11-37.63Q312.00-36.91 311.33-35.76L311.33-35.76L311.33-35.76Q310.66-34.60 310.66-32.88L310.66-32.88L310.66-32.88Q310.66-31.12 311.41-29.92L311.41-29.92L311.41-29.92Q312.17-28.72 313.47-27.92L313.47-27.92L313.47-27.92Q314.77-27.13 316.52-26.58L316.52-26.58L316.52-26.58Q318.26-26.04 320.23-25.57L320.23-25.57L320.23-25.57Q323.30-24.82 325.94-23.87L325.94-23.87L325.94-23.87Q328.59-22.93 330.52-21.42L330.52-21.42L330.52-21.42Q332.45-19.90 333.54-17.68L333.54-17.68L333.54-17.68Q334.64-15.45 334.64-12.18L334.64-12.18L334.64-12.18Q334.64-8.73 333.27-6.26L333.27-6.26L333.27-6.26Q331.91-3.78 329.58-2.16L329.58-2.16L329.58-2.16Q327.25-0.55 324.14 0.23L324.14 0.23L324.14 0.23Q321.03 1.01 317.50 1.01L317.50 1.01L317.50 1.01Q315.66 1.01 313.70 0.78L313.70 0.78L313.70 0.78Q311.75 0.55 309.84 0.10L309.84 0.10L309.84 0.10Q307.93-0.34 306.08-0.97L306.08-0.97L306.08-0.97Q304.23-1.60 302.60-2.35L302.60-2.35L302.60-2.35Q303.18-3.70 303.83-4.98L303.83-4.98L303.83-4.98Q304.49-6.26 305.20-7.52L305.20-7.52L305.20-7.52Q306.58-6.93 308.14-6.40L308.14-6.40L308.14-6.40Q309.69-5.88 311.33-5.50L311.33-5.50L311.33-5.50Q312.97-5.12 314.56-4.89L314.56-4.89L314.56-4.89Q316.16-4.66 317.63-4.66L317.63-4.66L317.63-4.66Q319.48-4.66 321.22-5.08L321.22-5.08L321.22-5.08Q322.96-5.50 324.33-6.40L324.33-6.40L324.33-6.40Q325.69-7.31 326.51-8.73L326.51-8.73L326.51-8.73Q327.33-10.16 327.33-12.18L327.33-12.18L327.33-12.18Q327.33-14.07 326.55-15.29L326.55-15.29L326.55-15.29Q325.78-16.50 324.47-17.32L324.47-17.32L324.47-17.32Q323.17-18.14 321.43-18.67L321.43-18.67L321.43-18.67Q319.69-19.19 317.75-19.65L317.75-19.65L317.75-19.65Q314.82-20.37 312.19-21.29L312.19-21.29L312.19-21.29Q309.57-22.21 307.61-23.70L307.61-23.70L307.61-23.70Q305.66-25.20 304.51-27.40L304.51-27.40L304.51-27.40Q303.35-29.60 303.35-32.88L303.35-32.88L303.35-32.88Q303.35-35.95 304.61-38.17L304.61-38.17L304.61-38.17Q305.87-40.40 307.99-41.82L307.99-41.82L307.99-41.82Q310.11-43.25 312.90-43.94L312.90-43.94L312.90-43.94Q315.70-44.64 318.76-44.64ZM358.19-21.33L343.12-40.48L348.45-44.64L362.22-27.13L373.98-43.67L382.30-43.67L366.47-21.71L381.12-3.15L375.83 1.01L362.48-15.96L351.10-0.04L342.74-0.04L358.19-21.33Z" fill="#000000"></path></g></g><style>text {
  font-size: 64px;
  font-family: Arial Black;
  dominant-baseline: central;
  text-anchor: middle;
}</style></svg>